<svg xmlns="http://www.w3.org/2000/svg" version="1.1" xmlns:xlink="http://www.w3.org/1999/xlink" xmlns:svgjs="http://svgjs.dev/svgjs" width="750" height="515" viewBox="0 0 312 312" class="svg-animations " style="background: rgb(246, 252, 255);"><svg viewBox="0 0 130.24322509765625 135.0000762939453" width="75" height="75" style="fill: rgb(77, 62, 252);" x="118.5" y="89.41510581970215"><svg width="132" height="130" viewBox="0 0 132 130" xmlns="http://www.w3.org/2000/svg">
<path fill-rule="evenodd" clip-rule="evenodd" d="M15.4758 53.9991C24.4316 53.3553 33.4317 54.295 42.061 56.7773C52.087 59.3606 63.0229 63.8301 73.9748 67.7136C84.9267 71.597 95.8629 74.7504 105.889 74.9454C114.821 75.2821 123.644 72.896 131.19 68.1036V64.593C131.19 62.7896 131.19 61.002 130.979 59.2305L129.353 59.8483C121.764 62.741 112.892 62.9688 103.353 60.5306C93.8142 58.0936 83.853 53.2185 73.7458 48.3272C63.6383 43.4363 53.5956 38.5767 44.139 36.5138C35.5741 34.2796 26.5321 34.7104 18.2203 37.7493C12.5653 40.0628 7.33191 43.2966 2.73433 47.3194C1.9046 50.3628 1.30724 53.4653 0.946777 56.5984C5.72108 55.3889 10.576 54.5207 15.4737 53.9993L15.4758 53.9991Z"></path>
<path fill-rule="evenodd" clip-rule="evenodd" d="M96.9868 18.8992C104.543 25.3986 111.855 30.1276 118.681 32.2895C120.217 32.8029 121.786 33.2099 123.377 33.508C122.099 31.148 120.677 28.8686 119.12 26.683C118.015 26.0981 116.909 25.4316 115.87 24.7005C108.74 19.7866 102.377 13.8449 96.9871 7.06869C90.9943 3.8065 84.5231 1.51439 77.8127 0.27678C84.3121 6.80927 90.7642 13.5037 96.9871 18.8992L96.9868 18.8992Z"></path>
<path fill-rule="evenodd" clip-rule="evenodd" d="M22.414 15.9249C29.5312 13.617 37.738 14.1861 46.5124 17.4041C55.2868 20.6222 64.6314 26.276 73.9751 32.0285C83.3186 37.781 92.662 43.6153 101.438 46.9297C110.212 50.2453 118.435 51.3491 125.553 49.8382V49.8393C126.85 49.5899 128.131 49.2646 129.388 48.8633C128.852 46.7188 128.218 44.6386 127.487 42.5906V42.5917C125.858 42.6302 124.229 42.5486 122.612 42.348C115.348 41.584 107.385 38.0905 99.1797 32.4999C90.9732 26.9094 82.4582 19.4997 73.9763 12.675C68.2532 7.84728 62.0642 3.60111 55.5001 0C43.0225 1.98932 31.3927 7.56059 22.0252 16.039L22.414 15.9249Z"></path>
<path fill-rule="evenodd" clip-rule="evenodd" d="M102.399 118.854C92.9939 120.289 83.4474 120.551 73.9783 119.634C60.6699 118.561 47.3443 116.384 35.3208 115.458C31.3398 115.101 27.504 114.873 23.8486 114.727L23.8475 114.726C34.7233 123.837 48.2665 129.165 62.4353 129.91C76.603 130.654 90.6302 126.773 102.402 118.854L102.399 118.854Z"></path>
<path fill-rule="evenodd" clip-rule="evenodd" d="M37.5438 96.249C48.8382 98.2474 61.3985 101.432 73.9757 103.366C86.5532 105.3 99.0976 105.885 110.393 102.814H110.394C114.376 101.774 118.229 100.291 121.882 98.3937C124.908 93.3779 127.247 87.9777 128.838 82.3399C122.453 85.8867 115.359 87.9734 108.071 88.4496C97.3454 89.3269 85.6623 86.9545 73.9458 83.9814C62.2298 81.0082 50.5786 77.482 39.8208 75.8564V75.8553C30.4115 74.3024 20.8095 74.3024 11.4005 75.8553C7.76081 76.4243 4.51111 77.1883 1.74746 77.6915C2.75629 82.6066 4.32618 87.3876 6.42774 91.9431L8.39436 92.2026C16.1941 93.1457 26.2357 94.1047 37.5456 96.2492L37.5438 96.249Z"></path>
</svg></svg><text fill="#4d3efc" font-family="JetBrains Mono" font-size="38px" x="130.70080184936523" y="202.96663115007823"><tspan dy="0" x="130.70080184936523">DS</tspan></text><text fill="#8c83ed" font-family="IBM Plex Sans" font-size="19px" x="156" y="222.58489418029785"><tspan dy="0" x="156"></tspan></text></svg>